<svg width="24" height="24" viewBox="0 0 24 24" fill="none" xmlns="http://www.w3.org/2000/svg">
<path d="M20.2863 14.5432C19.4088 15.4467 18.4048 16.2067 17.3058 16.7926H17.8712C18.2491 16.7926 18.5555 17.1237 18.5555 17.5312C18.5555 17.9391 18.2487 18.2698 17.8712 18.2698H6.13615C5.75823 18.2698 5.45184 17.9387 5.45184 17.5312C5.45184 17.1233 5.75862 16.7926 6.13615 16.7926H6.69192C5.59291 16.2067 4.5889 15.4467 3.71133 14.5432C1.54602 12.3139 0.149521 9.21862 0 5.77354C0 5.77354 0.0456746 5.03059 0.649542 5.00092L23.3157 5.00005C23.6936 5.00005 24 5.33116 24 5.73864C24 8.90674 22.3854 12.3815 20.2863 14.5432ZM19.3445 13.4755C21.1 11.668 22.2846 9.21847 22.576 6.47789H1.42061C1.71204 9.21847 2.89679 11.6681 4.65213 13.4755C6.56073 15.4404 9.14884 16.6475 11.998 16.6475C14.8472 16.6475 17.4355 15.4403 19.3445 13.4755Z" fill="black"/>
</svg>
