<svg width="25" height="25" viewBox="0 0 25 25" fill="none" xmlns="http://www.w3.org/2000/svg">
<path d="M15.2649 9.33932C12.6428 9.33932 10.5096 11.4727 10.5096 14.0947C10.5096 16.7169 12.643 18.8501 15.2649 18.8501C17.8871 18.8501 20.0203 16.7167 20.0203 14.0947C20.0203 11.4727 17.8869 9.33932 15.2649 9.33932ZM15.2649 17.3312C14.1162 17.3312 13.1818 16.3965 13.1818 15.2481C13.1818 14.5896 13.4895 14.0031 13.9679 13.6208C13.7252 13.3286 13.5788 12.954 13.5788 12.5451C13.5788 11.6155 14.3353 10.8589 15.265 10.8589C16.1948 10.8589 16.9511 11.6153 16.9511 12.5451C16.9511 12.9536 16.8049 13.3286 16.5624 13.6208C17.0408 14.0029 17.3482 14.5896 17.3482 15.2481C17.3482 16.3965 16.4137 17.3312 15.2649 17.3312Z" fill="black"/>
<path d="M15.265 14.2312C14.7042 14.2312 14.2484 14.6871 14.2484 15.2478C14.2484 15.8083 14.7043 16.2644 15.265 16.2644C15.8255 16.2644 16.2816 15.8085 16.2816 15.2478C16.2814 14.6873 15.8256 14.2312 15.265 14.2312Z" fill="black"/>
<path d="M15.2649 13.1646C15.6068 13.1646 15.8844 12.8867 15.8844 12.5451C15.8844 12.2036 15.6068 11.9257 15.2649 11.9257C14.9236 11.9257 14.6455 12.2036 14.6455 12.5451C14.6453 12.8867 14.9236 13.1646 15.2649 13.1646Z" fill="black"/>
<path d="M21.142 3.84743C16.4557 -0.838954 8.85792 -0.838954 4.17133 3.84743C-0.514791 8.53381 -0.514791 16.1317 4.17133 20.8179C8.85763 25.5043 16.4554 25.5043 21.142 20.8179C25.8283 16.1315 25.8283 8.53362 21.142 3.84743ZM4.60799 10.4584C4.55125 10.705 4.33139 10.8717 4.08885 10.8717C4.04942 10.8717 4.00849 10.8672 3.96832 10.8577C3.68168 10.7913 3.50255 10.5049 3.56877 10.218C3.96107 8.51937 4.82156 6.96841 6.05721 5.73289C7.82004 3.97041 10.1637 2.99946 12.6571 2.99946C12.9516 2.99946 13.1904 3.23849 13.1904 3.53275C13.1904 3.82721 12.9514 4.06603 12.6571 4.06603C10.4488 4.06603 8.37294 4.92599 6.81148 6.48737C5.71755 7.58165 4.95532 8.95499 4.60804 10.4584L4.60799 10.4584ZM15.265 19.9174C12.0548 19.9174 9.44267 17.3056 9.44267 14.095C9.44267 10.8845 12.0546 8.27267 15.265 8.27267C18.4757 8.27267 21.0872 10.8845 21.0872 14.095C21.0871 17.3052 18.4757 19.9174 15.265 19.9174Z" fill="black"/>
</svg>
